<?xml version="1.0" encoding="UTF-8" standalone="no"?>
<svg
   width="45"
   height="380"
   viewBox="0 0 45 380"
   version="1.1"
   id="svg96"
   sodipodi:docname="Quantizer.svg"
   inkscape:version="1.1.2 (b8e25be833, 2022-02-05)"
   xmlns:inkscape="http://www.inkscape.org/namespaces/inkscape"
   xmlns:sodipodi="http://sodipodi.sourceforge.net/DTD/sodipodi-0.dtd"
   xmlns:xlink="http://www.w3.org/1999/xlink"
   xmlns="http://www.w3.org/2000/svg"
   xmlns:svg="http://www.w3.org/2000/svg"
   xmlns:rdf="http://www.w3.org/1999/02/22-rdf-syntax-ns#"
   xmlns:cc="http://creativecommons.org/ns#"
   xmlns:dc="http://purl.org/dc/elements/1.1/">
  <metadata
     id="metadata100">
    <rdf:RDF>
      <cc:Work
         rdf:about="">
        <dc:format>image/svg+xml</dc:format>
        <dc:type
           rdf:resource="http://purl.org/dc/dcmitype/StillImage" />
      </cc:Work>
    </rdf:RDF>
  </metadata>
  <sodipodi:namedview
     pagecolor="#ffffff"
     bordercolor="#666666"
     borderopacity="1"
     objecttolerance="10"
     gridtolerance="10"
     guidetolerance="10"
     inkscape:pageopacity="0"
     inkscape:pageshadow="2"
     inkscape:window-width="1920"
     inkscape:window-height="1147"
     id="namedview98"
     showgrid="false"
     inkscape:zoom="1.7566021"
     inkscape:cx="76.568279"
     inkscape:cy="166.7993"
     inkscape:window-x="-8"
     inkscape:window-y="-8"
     inkscape:window-maximized="1"
     inkscape:current-layer="svg96"
     inkscape:pagecheckerboard="0" />
  <defs
     id="defs7">
    <linearGradient
       id="e54ef980-998c-4ad0-9676-a26d002d49f9"
       x1="22.5"
       x2="22.5"
       y2="380"
       gradientUnits="userSpaceOnUse">
      <stop
         offset="0"
         stop-color="#ebebeb"
         id="stop2" />
      <stop
         offset="1"
         stop-color="#e1e1e1"
         id="stop4" />
    </linearGradient>
    <linearGradient
       inkscape:collect="always"
       id="linearGradient22215-5">
      <stop
         style="stop-color:#000000;stop-opacity:1"
         offset="0"
         id="stop22211" />
      <stop
         style="stop-color:#191928;stop-opacity:1"
         offset="1"
         id="stop22213" />
    </linearGradient>
    <linearGradient
       id="SVGID_1_"
       gradientUnits="userSpaceOnUse"
       x1="518.99988"
       y1="-5410.3999"
       x2="531.99988"
       y2="-5410.3999"
       gradientTransform="rotate(90,-2442.45,-2960.45)">
      <stop
         offset="0.00559"
         style="stop-color:#303030"
         id="stop45369" />
      <stop
         offset="1"
         style="stop-color:#222222"
         id="stop45371" />
    </linearGradient>
    <linearGradient
       id="SVGID_2_"
       gradientUnits="userSpaceOnUse"
       x1="519.68744"
       y1="-5410.3999"
       x2="531.31134"
       y2="-5410.3999"
       gradientTransform="rotate(90,-2442.45,-2960.45)">
      <stop
         offset="0.01118"
         style="stop-color:#636363"
         id="stop45376" />
      <stop
         offset="1"
         style="stop-color:#2B2B2B"
         id="stop45378" />
    </linearGradient>
    <linearGradient
       id="SVGID_3_-3"
       gradientUnits="userSpaceOnUse"
       x1="520.13452"
       y1="-5410.3999"
       x2="530.86426"
       y2="-5410.3999"
       gradientTransform="rotate(90,-2442.45,-2960.45)">
      <stop
         offset="0.01118"
         style="stop-color:#4C4C4C"
         id="stop45383-1" />
      <stop
         offset="1"
         style="stop-color:#3B3B3B"
         id="stop45385-69" />
    </linearGradient>
    <linearGradient
       inkscape:collect="always"
       xlink:href="#linearGradient22215-5"
       id="linearGradient2654-9"
       gradientUnits="userSpaceOnUse"
       x1="105"
       y1="380"
       x2="105"
       y2="0" />
    <linearGradient
       inkscape:collect="always"
       xlink:href="#linearGradient22215-5"
       id="linearGradient3258"
       gradientUnits="userSpaceOnUse"
       x1="105"
       y1="380"
       x2="105"
       y2="0" />
    <filter
       style="color-interpolation-filters:sRGB"
       inkscape:label="Blur"
       id="filter11719-5-2"
       x="-0.99368436"
       y="-0.2676257"
       width="2.9873687"
       height="1.5352514">
      <feGaussianBlur
         stdDeviation="1 1"
         result="fbSourceGraphic"
         id="feGaussianBlur11717-2-4" />
      <feColorMatrix
         result="fbSourceGraphicAlpha"
         in="fbSourceGraphic"
         values="0 0 0 -1 0 0 0 0 -1 0 0 0 0 -1 0 0 0 0 1 0"
         id="feColorMatrix11739-0-1" />
      <feGaussianBlur
         id="feGaussianBlur11741-5-0"
         stdDeviation="1 1"
         result="blur"
         in="fbSourceGraphic" />
    </filter>
    <filter
       style="color-interpolation-filters:sRGB"
       inkscape:label="Blur"
       id="filter11719-5-2-9"
       x="-0.99368436"
       y="-0.2676257"
       width="2.9873687"
       height="1.5352514">
      <feGaussianBlur
         stdDeviation="1 1"
         result="fbSourceGraphic"
         id="feGaussianBlur11717-2-4-8" />
      <feColorMatrix
         result="fbSourceGraphicAlpha"
         in="fbSourceGraphic"
         values="0 0 0 -1 0 0 0 0 -1 0 0 0 0 -1 0 0 0 0 1 0"
         id="feColorMatrix11739-0-1-1" />
      <feGaussianBlur
         id="feGaussianBlur11741-5-0-4"
         stdDeviation="1 1"
         result="blur"
         in="fbSourceGraphic" />
    </filter>
    <filter
       style="color-interpolation-filters:sRGB"
       inkscape:label="Blur"
       id="filter11719-5-2-4"
       x="-0.99368436"
       y="-0.2676257"
       width="2.9873687"
       height="1.5352514">
      <feGaussianBlur
         stdDeviation="1 1"
         result="fbSourceGraphic"
         id="feGaussianBlur11717-2-4-0" />
      <feColorMatrix
         result="fbSourceGraphicAlpha"
         in="fbSourceGraphic"
         values="0 0 0 -1 0 0 0 0 -1 0 0 0 0 -1 0 0 0 0 1 0"
         id="feColorMatrix11739-0-1-9" />
      <feGaussianBlur
         id="feGaussianBlur11741-5-0-5"
         stdDeviation="1 1"
         result="blur"
         in="fbSourceGraphic" />
    </filter>
    <linearGradient
       id="SVGID_3_"
       gradientUnits="userSpaceOnUse"
       x1="520.13452"
       y1="-5410.3999"
       x2="530.86426"
       y2="-5410.3999"
       gradientTransform="rotate(90,-2442.45,-2960.45)">
      <stop
         offset="0.01118"
         style="stop-color:#4C4C4C"
         id="stop45383" />
      <stop
         offset="0.67017823"
         style="stop-color:#3b3b3b;stop-opacity:0"
         id="stop45385" />
    </linearGradient>
    <linearGradient
       id="linearGradient46906"
       gradientUnits="userSpaceOnUse"
       x1="520.13452"
       y1="-5410.3999"
       x2="530.86426"
       y2="-5410.3999"
       gradientTransform="rotate(90,-2442.45,-2960.45)">
      <stop
         offset="0.02846069"
         style="stop-color:#ff8c8c;stop-opacity:1"
         id="stop46902" />
      <stop
         offset="0.82481533"
         style="stop-color:#ff1515;stop-opacity:0"
         id="stop46904" />
    </linearGradient>
    <linearGradient
       id="SVGID_3_-8"
       gradientUnits="userSpaceOnUse"
       x1="520.13452"
       y1="-5410.3999"
       x2="530.86426"
       y2="-5410.3999"
       gradientTransform="rotate(90,-2442.45,-2960.45)">
      <stop
         offset="0.02846069"
         style="stop-color:#ff8c8c;stop-opacity:1"
         id="stop45383-7" />
      <stop
         offset="0.67017823"
         style="stop-color:#ff1515;stop-opacity:0"
         id="stop45385-6" />
    </linearGradient>
  </defs>
  <g
     id="b2b0bacb-d797-4a3e-bbde-0f62b55dc04c"
     data-name="components"
     inkscape:groupmode="layer"
     style="display:none">
    <circle
       id="a57cab38-dc0f-49d0-a87e-7576dd252177"
       data-name="Sum#RoundBlackKnob"
       cx="22.49996"
       cy="189.81477"
       r="5"
       style="fill:#ff0000" />
    <circle
       id="bba5359c-bf46-4a7e-8793-a5f2ba9a7428"
       data-name="Mono#PJ301MPort"
       cx="22.49996"
       cy="333.85507"
       r="5"
       style="fill:#0000ff" />
    <circle
       id="a5c0d832-a420-420f-99ee-5e202ab983e0"
       data-name="Poly#PJ301MPort"
       cx="22.49996"
       cy="285.8197"
       r="5"
       style="fill:#00ff00" />
    <rect
       id="e46370ec-613d-4e9e-9b2b-5a1e20a8bfa2"
       data-name="Chan"
       x="10.39802"
       y="227.92471"
       width="24.20389"
       height="24.20389"
       style="fill:#ffff00" />
    <rect
       id="f4b15c7a-97b4-42b2-84b1-640e3beb9fe8"
       data-name="Screen"
       x="-0.00327"
       y="37.89547"
       width="45.003269"
       height="109.19598"
       style="fill:#ffff00" />
    <circle
       id="b40f0d39-aecc-4448-a725-1481521321de"
       data-name="Red#RedLight"
       cx="31.91474"
       cy="53.387989"
       r="3"
       style="fill:#ff00ff" />
    <circle
       id="f11f670a-9581-4474-a437-a87fbfe729a8"
       data-name="Yellow#RedLight"
       cx="31.91474"
       cy="69.030182"
       r="3"
       style="fill:#ff00ff" />
    <circle
       id="e2021c3a-9ef0-4513-8bbd-da2a88f4ad91"
       data-name="Green4#RedLight"
       cx="31.91474"
       cy="84.672371"
       r="3"
       style="fill:#ff00ff" />
    <circle
       id="e4d66ba5-1ff1-4394-bff1-2f4e295b0cbb"
       data-name="Green3#RedLight"
       cx="31.91474"
       cy="100.31456"
       r="3"
       style="fill:#ff00ff" />
    <circle
       id="e768e54f-c849-4b91-8a38-97a2f787922e"
       data-name="Green2#RedLight"
       cx="31.91474"
       cy="115.95675"
       r="3"
       style="fill:#ff00ff" />
    <circle
       id="a33eb0a6-ef53-4f82-ad2d-a715ceed9f28"
       data-name="Green1#RedLight"
       cx="31.91474"
       cy="131.59892"
       r="3"
       style="fill:#ff00ff" />
  </g>
  <g
     id="b3947816-d40f-41db-852f-d14f402c3ab2-9-6-8"
     data-name="FND BG"
     style="fill:url(#linearGradient2654-9);fill-opacity:1"
     transform="scale(0.43450383,1)">
    <rect
       width="105"
       height="380"
       fill="url(#b0234e08-fdca-44f0-b5b7-019b02f0775b)"
       id="rect9-9-5-3-1"
       style="fill:url(#linearGradient3258);fill-opacity:1"
       x="0"
       y="0" />
  </g>
  <path
     id="rect9-9-5-3-6-4"
     style="opacity:0.04;fill:#ffffff;fill-opacity:1;stroke-width:0.659169"
     d="M 46.541016,17.601562 0.91796875,66.345703 V 87.978516 L 46.541016,39.234375 Z" />
  <path
     id="rect9-9-5-3-6-4-5"
     style="opacity:0.02;fill:#ffffff;fill-opacity:1;stroke-width:0.659169"
     d="M 46.541016,77.601562 0.91796832,126.3457 v 21.63282 L 46.541016,99.234375 Z" />
  <path
     id="rect18523-8-8-7-6"
     style="opacity:0.07;fill:#ffffff;stroke-width:0.527778"
     d="M 16.520721,1.40065 0.917201,18.072525 V 39.705338 L 36.768761,1.40065 Z" />
  <rect
     style="fill:#44444a;fill-opacity:1;stroke-width:0.0424706"
     id="rect8523-8-1-0-9-3"
     width="35.841312"
     height="1"
     x="5.8079987"
     y="34.98822" />
  <g
     aria-label="QNT"
     id="text14110-1-2-2-9-9"
     style="font-size:13.3333px;line-height:1.25;fill:#929090">
    <path
       d="m 16.847924,28.82753 q 0.878904,0.605467 1.62109,0.885414 l -0.371093,0.878904 q -1.028643,-0.371092 -2.050776,-1.171872 -1.061195,0.592447 -2.343744,0.592447 -1.29557,0 -2.350254,-0.624999 -1.054685,-0.624998 -1.6276005,-1.757808 -0.5664048,-1.132809 -0.5664048,-2.552077 0,-1.412756 0.5729152,-2.571608 0.5729151,-1.158851 1.6276001,-1.764318 1.061195,-0.605467 2.369786,-0.605467 1.321611,0 2.382806,0.631508 1.061195,0.624999 1.614579,1.757809 0.559895,1.126299 0.559895,2.545566 0,1.178382 -0.358072,2.12239 -0.358072,0.937498 -1.080727,1.634111 z m -2.779941,-1.614579 q 1.093748,0.305989 1.803381,0.911456 1.113279,-1.015623 1.113279,-3.053378 0,-1.158851 -0.397135,-2.024734 -0.390624,-0.865884 -1.152341,-1.341143 -0.755206,-0.48177 -1.699214,-0.48177 -1.412757,0 -2.343744,0.97005 -0.930987,0.963539 -0.930987,2.884107 0,1.861975 0.917966,2.858066 0.924477,0.996091 2.356765,0.996091 0.677082,0 1.276038,-0.253905 -0.592446,-0.384114 -1.249996,-0.546874 z"
       style="font-family:Arial;-inkscape-font-specification:Arial"
       id="path16437" />
    <path
       d="m 19.972917,29.849663 v -9.544247 h 1.29557 l 5.013008,7.493471 v -7.493471 h 1.210934 v 9.544247 H 26.19686 l -5.013009,-7.499981 v 7.499981 z"
       style="font-family:Arial;-inkscape-font-specification:Arial"
       id="path16439" />
    <path
       d="m 32.043199,29.849663 v -8.417948 h -3.144523 v -1.126299 h 7.565085 v 1.126299 h -3.157544 v 8.417948 z"
       style="font-family:Arial;-inkscape-font-specification:Arial"
       id="path16441" />
  </g>
  <g
     aria-label="V/OCT"
     id="text14110-5-6-8-3-8-2-8"
     style="font-size:8px;line-height:1.25;fill:#929090">
    <path
       d="m 12.905201,47.113319 -2.21875,-5.726562 h 0.820312 l 1.488282,4.160156 q 0.179687,0.5 0.300781,0.9375 0.132812,-0.46875 0.308594,-0.9375 l 1.546875,-4.160156 h 0.773437 l -2.242187,5.726562 z"
       style="font-family:Arial;-inkscape-font-specification:Arial"
       id="path16444" />
    <path
       d="m 15.987232,47.210976 1.660156,-5.921875 h 0.5625 l -1.65625,5.921875 z"
       style="font-family:Arial;-inkscape-font-specification:Arial"
       id="path16446" />
    <path
       d="m 18.596607,44.324257 q 0,-1.425781 0.765625,-2.230469 0.765625,-0.808594 1.976563,-0.808594 0.792968,0 1.429687,0.378907 0.636719,0.378906 0.96875,1.058593 0.335938,0.675782 0.335938,1.535157 0,0.871093 -0.351563,1.558593 -0.351562,0.6875 -0.996094,1.042969 -0.644531,0.351563 -1.390625,0.351563 -0.808593,0 -1.445312,-0.390625 -0.636719,-0.390625 -0.964844,-1.066407 -0.328125,-0.675781 -0.328125,-1.429687 z m 0.78125,0.01172 q 0,1.035156 0.554688,1.632812 0.558593,0.59375 1.398437,0.59375 0.855469,0 1.40625,-0.601562 0.554688,-0.601563 0.554688,-1.707032 0,-0.699218 -0.238282,-1.21875 -0.234375,-0.523437 -0.691406,-0.808593 -0.453125,-0.289063 -1.019531,-0.289063 -0.804688,0 -1.386719,0.554688 -0.578125,0.550781 -0.578125,1.84375 z"
       style="font-family:Arial;-inkscape-font-specification:Arial"
       id="path16448" />
    <path
       d="m 29.13567,45.105507 0.757812,0.191406 q -0.238281,0.933594 -0.859375,1.425781 -0.617187,0.488282 -1.511719,0.488282 -0.925781,0 -1.507812,-0.375 -0.578125,-0.378907 -0.882813,-1.09375 -0.300781,-0.714844 -0.300781,-1.535157 0,-0.894531 0.339844,-1.558593 0.34375,-0.667969 0.972656,-1.011719 0.632813,-0.347656 1.390625,-0.347656 0.859375,0 1.445313,0.4375 0.585937,0.4375 0.816406,1.230468 l -0.746094,0.175782 q -0.199219,-0.625 -0.578125,-0.910157 -0.378906,-0.285156 -0.953125,-0.285156 -0.660156,0 -1.105469,0.316406 -0.441406,0.316407 -0.621093,0.851563 -0.179688,0.53125 -0.179688,1.097656 0,0.730469 0.210938,1.277344 0.214843,0.542969 0.664062,0.8125 0.449219,0.269531 0.972656,0.269531 0.636719,0 1.078125,-0.367187 0.441407,-0.367188 0.597657,-1.089844 z"
       style="font-family:Arial;-inkscape-font-specification:Arial"
       id="path16450" />
    <path
       d="m 32.284107,47.113319 v -5.050781 h -1.886719 v -0.675781 h 4.539063 v 0.675781 H 33.04192 v 5.050781 z"
       style="font-family:Arial;-inkscape-font-specification:Arial"
       id="path16452" />
  </g>
  <rect
     style="fill:#232223;fill-opacity:1"
     id="rect25890-0-7-1-28-6-0-2-9-8"
     width="36"
     height="40"
     x="4.8114548"
     y="320.16788"
     rx="8" />
  <g
     aria-label="OUT"
     id="text14110-5-6-8-3-8-2-5-4-5-9-6"
     style="font-size:8px;line-height:1.25;fill:#929090">
    <path
       d="m 14.641529,325.92172 q 0,-1.42578 0.765625,-2.23047 0.765625,-0.80859 1.976563,-0.80859 0.792968,0 1.429687,0.37891 0.636719,0.3789 0.96875,1.05859 0.335938,0.67578 0.335938,1.53516 0,0.87109 -0.351563,1.55859 -0.351562,0.6875 -0.996094,1.04297 -0.644531,0.35156 -1.390625,0.35156 -0.808593,0 -1.445312,-0.39062 -0.636719,-0.39063 -0.964844,-1.06641 -0.328125,-0.67578 -0.328125,-1.42969 z m 0.78125,0.0117 q 0,1.03516 0.554688,1.63281 0.558593,0.59375 1.398437,0.59375 0.855469,0 1.40625,-0.60156 0.554688,-0.60156 0.554688,-1.70703 0,-0.69922 -0.238282,-1.21875 -0.234375,-0.52344 -0.691406,-0.80859 -0.453125,-0.28907 -1.019531,-0.28907 -0.804688,0 -1.386719,0.55469 -0.578125,0.55078 -0.578125,1.84375 z"
       style="font-family:Arial;-inkscape-font-specification:Arial"
       id="path16464" />
    <path
       d="m 24.852467,322.98422 h 0.757812 v 3.3086 q 0,0.86328 -0.195312,1.37109 -0.195313,0.50781 -0.707032,0.82812 -0.507812,0.31641 -1.335937,0.31641 -0.804688,0 -1.316406,-0.27734 -0.511719,-0.27735 -0.730469,-0.80078 -0.21875,-0.52735 -0.21875,-1.4375 v -3.3086 h 0.757812 v 3.30469 q 0,0.74609 0.136719,1.10156 0.140625,0.35156 0.476563,0.54297 0.339843,0.19141 0.828125,0.19141 0.835937,0 1.191406,-0.37891 0.355469,-0.37891 0.355469,-1.45703 z"
       style="font-family:Arial;-inkscape-font-specification:Arial"
       id="path16466" />
    <path
       d="M 28.329029,328.71078 V 323.66 H 26.44231 v -0.67578 h 4.539063 V 323.66 h -1.894531 v 5.05078 z"
       style="font-family:Arial;-inkscape-font-specification:Arial"
       id="path16468" />
  </g>
  <rect
     style="fill:#44444a;fill-opacity:1;stroke-width:0.0425646"
     id="rect8523-2-4"
     width="36"
     height="1"
     x="4.811451"
     y="312.07578" />
  <g
     aria-label="OFST"
     id="text14110-5-6-8-3-5-8-5-0"
     style="font-size:8px;line-height:1.25;fill:#929090">
    <path
       d="m 12.418873,237.2464 q 0,-1.42578 0.765625,-2.23047 0.765625,-0.80859 1.976562,-0.80859 0.792969,0 1.429688,0.3789 0.636719,0.37891 0.96875,1.0586 0.335937,0.67578 0.335937,1.53515 0,0.8711 -0.351562,1.5586 -0.351563,0.6875 -0.996094,1.04297 -0.644531,0.35156 -1.390625,0.35156 -0.808594,0 -1.445312,-0.39063 -0.636719,-0.39062 -0.964844,-1.0664 -0.328125,-0.67578 -0.328125,-1.42969 z m 0.78125,0.0117 q 0,1.03515 0.554687,1.63281 0.558594,0.59375 1.398438,0.59375 0.855469,0 1.40625,-0.60156 0.554687,-0.60156 0.554687,-1.70703 0,-0.69922 -0.238281,-1.21875 -0.234375,-0.52344 -0.691406,-0.8086 -0.453125,-0.28906 -1.019531,-0.28906 -0.804688,0 -1.386719,0.55469 -0.578125,0.55078 -0.578125,1.84375 z"
       style="font-family:Arial;-inkscape-font-specification:Arial"
       id="path16455" />
    <path
       d="m 18.91106,240.03546 v -5.72656 h 3.863282 v 0.67578 h -3.105469 v 1.77344 h 2.6875 v 0.67578 h -2.6875 v 2.60156 z"
       style="font-family:Arial;-inkscape-font-specification:Arial"
       id="path16457" />
    <path
       d="m 23.500904,238.19562 0.714844,-0.0625 q 0.05078,0.42969 0.234375,0.70703 0.1875,0.27344 0.578125,0.44531 0.390625,0.16797 0.878906,0.16797 0.433594,0 0.765625,-0.12891 0.332031,-0.1289 0.492188,-0.35156 0.164062,-0.22656 0.164062,-0.49219 0,-0.26953 -0.15625,-0.46875 -0.15625,-0.20312 -0.515625,-0.33984 -0.230469,-0.0898 -1.019531,-0.27734 -0.789063,-0.19141 -1.105469,-0.35938 -0.410156,-0.21484 -0.613281,-0.53125 -0.199219,-0.32031 -0.199219,-0.71484 0,-0.4336 0.246094,-0.8086 0.246094,-0.3789 0.71875,-0.57421 0.472656,-0.19532 1.050781,-0.19532 0.636719,0 1.121094,0.20703 0.488281,0.20313 0.75,0.60157 0.261719,0.39843 0.28125,0.90234 l -0.726563,0.0547 q -0.05859,-0.54297 -0.398437,-0.82031 -0.335938,-0.27735 -0.996094,-0.27735 -0.6875,0 -1.003906,0.25391 -0.3125,0.25 -0.3125,0.60547 0,0.30859 0.222656,0.50781 0.21875,0.19922 1.140625,0.41016 0.925781,0.20703 1.269531,0.36328 0.5,0.23047 0.738282,0.58593 0.238281,0.35157 0.238281,0.8125 0,0.45704 -0.261719,0.86329 -0.261719,0.40234 -0.753906,0.6289 -0.488281,0.22266 -1.101563,0.22266 -0.777343,0 -1.304687,-0.22656 -0.523438,-0.22657 -0.824219,-0.67969 -0.296875,-0.45703 -0.3125,-1.03125 z"
       style="font-family:Arial;-inkscape-font-specification:Arial"
       id="path16459" />
    <path
       d="m 30.551685,240.03546 v -5.05078 h -1.886718 v -0.67578 h 4.539062 v 0.67578 h -1.894531 v 5.05078 z"
       style="font-family:Arial;-inkscape-font-specification:Arial"
       id="path16461" />
  </g>
</svg>
